<svg version="1.1" viewBox="0.0 0.0 1264.8871391076116 522.2388451443569" fill="none" stroke="none" stroke-linecap="square" stroke-miterlimit="10" xmlns:xlink="http://www.w3.org/1999/xlink" xmlns="http://www.w3.org/2000/svg"><clipPath id="p.0"><path d="m0 0l1264.8871 0l0 522.23883l-1264.8871 0l0 -522.23883z" clip-rule="nonzero"/></clipPath><g clip-path="url(#p.0)"><path fill="#000000" fill-opacity="0.0" d="m0 0l1264.8871 0l0 522.23883l-1264.8871 0z" fill-rule="evenodd"/><path fill="#000000" fill-opacity="0.0" d="m64.38791 261.38065l0 0c0 -83.27757 67.50981 -150.78738 150.7874 -150.78738l0 0c39.991302 0 78.34468 15.886482 106.62279 44.164604c28.278137 28.278122 44.16461 66.631485 44.16461 106.62279l0 0c0 83.27759 -67.50983 150.78741 -150.7874 150.78741l0 0c-83.27759 0 -150.7874 -67.50983 -150.7874 -150.78741z" fill-rule="evenodd"/><path stroke="#ffffff" stroke-width="24.0" stroke-linejoin="round" stroke-linecap="butt" d="m64.38791 261.38065l0 0c0 -83.27757 67.50981 -150.78738 150.7874 -150.78738l0 0c39.991302 0 78.34468 15.886482 106.62279 44.164604c28.278137 28.278122 44.16461 66.631485 44.16461 106.62279l0 0c0 83.27759 -67.50983 150.78741 -150.7874 150.78741l0 0c-83.27759 0 -150.7874 -67.50983 -150.7874 -150.78741z" fill-rule="evenodd"/><path fill="#000000" fill-opacity="0.0" d="m171.17531 213.8504l0 0c0 -24.300522 19.699478 -44.0 44.0 -44.0l0 0c11.669525 0 22.8611 4.6357117 31.112701 12.887314c8.251602 8.251587 12.887283 19.443161 12.887283 31.112686l0 0c0 24.300537 -19.699463 44.0 -43.999985 44.0l0 0c-24.300522 0 -44.0 -19.699463 -44.0 -44.0z" fill-rule="evenodd"/><path stroke="#ffffff" stroke-width="24.0" stroke-linejoin="round" stroke-linecap="butt" d="m171.17531 213.8504l0 0c0 -24.300522 19.699478 -44.0 44.0 -44.0l0 0c11.669525 0 22.8611 4.6357117 31.112701 12.887314c8.251602 8.251587 12.887283 19.443161 12.887283 31.112686l0 0c0 24.300537 -19.699463 44.0 -43.999985 44.0l0 0c-24.300522 0 -44.0 -19.699463 -44.0 -44.0z" fill-rule="evenodd"/><path fill="#000000" fill-opacity="0.0" d="m171.47452 220.20999l-100.06299 99.08661" fill-rule="evenodd"/><path stroke="#ffffff" stroke-width="24.0" stroke-linejoin="round" stroke-linecap="butt" d="m171.47452 220.20999l-100.06299 99.08661" fill-rule="evenodd"/><path fill="#000000" fill-opacity="0.0" d="m358.26193 319.2966l-99.08664 -99.08661" fill-rule="evenodd"/><path stroke="#ffffff" stroke-width="24.0" stroke-linejoin="round" stroke-linecap="butt" d="m358.26193 319.2966l-99.08664 -99.08661" fill-rule="evenodd"/><path fill="#000000" fill-opacity="0.0" d="m326.81836 356.937l-99.086624 -99.08661" fill-rule="evenodd"/><path stroke="#ffffff" stroke-width="24.0" stroke-linejoin="round" stroke-linecap="butt" d="m326.81836 356.937l-99.086624 -99.08661" fill-rule="evenodd"/><path fill="#000000" fill-opacity="0.0" d="m198.26454 257.8504l-99.08661 99.08661" fill-rule="evenodd"/><path stroke="#ffffff" stroke-width="24.0" stroke-linejoin="round" stroke-linecap="butt" d="m198.26454 257.8504l-99.08661 99.08661" fill-rule="evenodd"/><path fill="#000000" fill-opacity="0.0" d="m240.77635 283.26578l-99.08661 99.08661" fill-rule="evenodd"/><path stroke="#ffffff" stroke-width="24.0" stroke-linejoin="round" stroke-linecap="butt" d="m240.77635 283.26578l-99.08661 99.08661" fill-rule="evenodd"/><path fill="#000000" fill-opacity="0.0" d="m363.52512 287.0338l0 0c-6.9457397 39.360626 -29.24295 74.349945 -61.98651 97.27075c-32.74356 22.920776 -73.25127 31.895447 -112.61191 24.949707l26.18898 -148.40945z" fill-rule="evenodd"/><path fill="#000000" fill-opacity="0.0" d="m363.52512 287.0338l0 0c-6.9457397 39.360626 -29.24295 74.349945 -61.98651 97.27075c-32.74356 22.920776 -73.25127 31.895447 -112.61191 24.949707" fill-rule="evenodd"/><path stroke="#9e3ffd" stroke-width="24.0" stroke-linejoin="round" stroke-linecap="butt" d="m363.52512 287.0338l0 0c-6.9457397 39.360626 -29.24295 74.349945 -61.98651 97.27075c-32.74356 22.920776 -73.25127 31.895447 -112.61191 24.949707" fill-rule="evenodd"/><path fill="#000000" fill-opacity="0.0" d="m277.72974 313.69128l-99.08661 99.08661" fill-rule="evenodd"/><path stroke="#ffffff" stroke-width="24.0" stroke-linejoin="round" stroke-linecap="butt" d="m277.72974 313.69128l-99.08661 99.08661" fill-rule="evenodd"/><path fill="#000000" fill-opacity="0.0" d="m322.45724 155.04492l0 0c28.062836 28.45543 43.672394 66.89331 43.394806 106.85776c-0.2776184 39.964447 -16.419678 78.18176 -44.875122 106.2446l-105.81102 -107.29135z" fill-rule="evenodd"/><path fill="#000000" fill-opacity="0.0" d="m322.45724 155.04492l0 0c28.062836 28.45543 43.672394 66.89331 43.394806 106.85776c-0.2776184 39.964447 -16.419678 78.18176 -44.875122 106.2446" fill-rule="evenodd"/><path stroke="#ffffff" stroke-width="24.0" stroke-linejoin="round" stroke-linecap="butt" d="m322.45724 155.04492l0 0c28.062836 28.45543 43.672394 66.89331 43.394806 106.85776c-0.2776184 39.964447 -16.419678 78.18176 -44.875122 106.2446" fill-rule="evenodd"/><path fill="#000000" fill-opacity="0.0" d="m411.90027 155.49606l838.8976 0l0 182.80316l-838.8976 0z" fill-rule="evenodd"/><path fill="#ffffff" d="m558.02527 205.78355l0 112.312485l-27.359375 0l0 -67.35936l-25.125 67.35936l-22.078125 0l-25.28125 -67.51561l0 67.51561l-27.359375 0l0 -112.312485l32.3125 0l31.53125 77.749985l31.1875 -77.749985l32.171875 0zm72.80194 113.437485q-15.84375 0 -29.046875 -7.359375q-13.203125 -7.359375 -20.96875 -20.5625q-7.75 -13.203125 -7.75 -29.6875q0 -16.468735 7.75 -29.593735q7.765625 -13.125 20.96875 -20.484375q13.203125 -7.359375 29.046875 -7.359375q15.828125 0 29.03125 7.359375q13.203125 7.359375 20.796875 20.484375q7.609375 13.125 7.609375 29.593735q0 16.484375 -7.6875 29.6875q-7.671875 13.203125 -20.796875 20.5625q-13.125 7.359375 -28.953125 7.359375zm0 -24.96875q13.4375 0 21.515625 -8.953125q8.078125 -8.96875 8.078125 -23.6875q0 -14.874985 -8.078125 -23.749985q-8.078125 -8.890625 -21.515625 -8.890625q-13.609375 0 -21.6875 8.8125q-8.078125 8.796875 -8.078125 23.82811q0 14.890625 8.078125 23.765625q8.078125 8.875 21.6875 8.875zm173.11945 23.84375l-27.359375 0l-45.765625 -69.281235l0 69.281235l-27.359375 0l0 -112.312485l27.359375 0l45.765625 69.593735l0 -69.593735l27.359375 0l0 112.312485zm100.63257 -112.312485l0 21.90625l-29.765625 0l0 90.406235l-27.359375 0l0 -90.406235l-29.75 0l0 -21.90625l86.875 0zm83.68506 92.468735l-41.921875 0l-6.71875 19.84375l-28.640625 0l40.640625 -112.312485l31.671875 0l40.640625 112.312485l-28.953125 0l-6.71875 -19.84375zm-7.046875 -21.109375l-13.921875 -41.124985l-13.75 41.124985l27.671875 0z" fill-rule="nonzero"/><path fill="#9e3ffd" d="m1140.1044 298.2523l-41.921875 0l-6.71875 19.84375l-28.640625 0l40.640625 -112.312485l31.671875 0l40.640625 112.312485l-28.953125 0l-6.71875 -19.84375zm-7.046875 -21.109375l-13.921875 -41.124985l-13.75 41.124985l27.671875 0zm82.40442 -71.35936l0 112.312485l-27.359375 0l0 -112.312485l27.359375 0z" fill-rule="nonzero"/></g></svg>