<svg version="1.1" viewBox="0.0 0.0 480.0 480.0" fill="none" stroke="none" stroke-linecap="square" stroke-miterlimit="10" xmlns:xlink="http://www.w3.org/1999/xlink" xmlns="http://www.w3.org/2000/svg"><clipPath id="p.0"><path d="m0 0l480.0 0l0 480.0l-480.0 0l0 -480.0z" clip-rule="nonzero"/></clipPath><g clip-path="url(#p.0)"><path fill="#000000" fill-opacity="0.0" d="m0 0l480.0 0l0 480.0l-480.0 0z" fill-rule="evenodd"/><path fill="#ffffff" d="m89.22199 240.52472l0 0c0 -83.27759 67.50982 -150.78741 150.78741 -150.78741l0 0c39.991302 0 78.344666 15.886482 106.6228 44.164604c28.278107 28.278122 44.16458 66.631485 44.16458 106.6228l0 0c0 83.27759 -67.509796 150.78738 -150.78738 150.78738l0 0c-83.27759 0 -150.78741 -67.509796 -150.78741 -150.78738z" fill-rule="evenodd"/><path stroke="#011e2c" stroke-width="24.0" stroke-linejoin="round" stroke-linecap="butt" d="m89.22199 240.52472l0 0c0 -83.27759 67.50982 -150.78741 150.78741 -150.78741l0 0c39.991302 0 78.344666 15.886482 106.6228 44.164604c28.278107 28.278122 44.16458 66.631485 44.16458 106.6228l0 0c0 83.27759 -67.509796 150.78738 -150.78738 150.78738l0 0c-83.27759 0 -150.78741 -67.509796 -150.78741 -150.78738z" fill-rule="evenodd"/><path fill="#ffffff" d="m196.0094 192.99448l0 0c0 -24.300537 19.699463 -44.0 44.0 -44.0l0 0c11.669525 0 22.861084 4.6356964 31.112701 12.887299c8.251587 8.251602 12.887299 19.443161 12.887299 31.112701l0 0c0 24.300522 -19.699463 44.0 -44.0 44.0l0 0c-24.300537 0 -44.0 -19.699478 -44.0 -44.0z" fill-rule="evenodd"/><path stroke="#011e2c" stroke-width="24.0" stroke-linejoin="round" stroke-linecap="butt" d="m196.0094 192.99448l0 0c0 -24.300537 19.699463 -44.0 44.0 -44.0l0 0c11.669525 0 22.861084 4.6356964 31.112701 12.887299c8.251587 8.251602 12.887299 19.443161 12.887299 31.112701l0 0c0 24.300522 -19.699463 44.0 -44.0 44.0l0 0c-24.300537 0 -44.0 -19.699478 -44.0 -44.0z" fill-rule="evenodd"/><path fill="#000000" fill-opacity="0.0" d="m196.30861 199.35405l-100.062996 99.086624" fill-rule="evenodd"/><path stroke="#011e2c" stroke-width="24.0" stroke-linejoin="round" stroke-linecap="butt" d="m196.30861 199.35405l-100.062996 99.086624" fill-rule="evenodd"/><path fill="#000000" fill-opacity="0.0" d="m383.096 298.44067l-99.08661 -99.086624" fill-rule="evenodd"/><path stroke="#011e2c" stroke-width="24.0" stroke-linejoin="round" stroke-linecap="butt" d="m383.096 298.44067l-99.08661 -99.086624" fill-rule="evenodd"/><path fill="#000000" fill-opacity="0.0" d="m351.65244 336.0811l-99.08661 -99.08661" fill-rule="evenodd"/><path stroke="#011e2c" stroke-width="24.0" stroke-linejoin="round" stroke-linecap="butt" d="m351.65244 336.0811l-99.08661 -99.08661" fill-rule="evenodd"/><path fill="#000000" fill-opacity="0.0" d="m223.09863 236.99448l-99.08661 99.08661" fill-rule="evenodd"/><path stroke="#011e2c" stroke-width="24.0" stroke-linejoin="round" stroke-linecap="butt" d="m223.09863 236.99448l-99.08661 99.08661" fill-rule="evenodd"/><path fill="#000000" fill-opacity="0.0" d="m265.61044 262.40985l-99.08661 99.08661" fill-rule="evenodd"/><path stroke="#011e2c" stroke-width="24.0" stroke-linejoin="round" stroke-linecap="butt" d="m265.61044 262.40985l-99.08661 99.08661" fill-rule="evenodd"/><path fill="#000000" fill-opacity="0.0" d="m388.35922 266.17786l0 0c-6.9457703 39.360626 -29.242981 74.349976 -61.98654 97.27075c-32.74356 22.920807 -73.25127 31.895477 -112.61189 24.949738l26.18898 -148.40945z" fill-rule="evenodd"/><path fill="#000000" fill-opacity="0.0" d="m388.35922 266.17786l0 0c-6.9457703 39.360626 -29.242981 74.349976 -61.98654 97.27075c-32.74356 22.920807 -73.25127 31.895477 -112.61189 24.949738" fill-rule="evenodd"/><path stroke="#9e3ffd" stroke-width="24.0" stroke-linejoin="round" stroke-linecap="butt" d="m388.35922 266.17786l0 0c-6.9457703 39.360626 -29.242981 74.349976 -61.98654 97.27075c-32.74356 22.920807 -73.25127 31.895477 -112.61189 24.949738" fill-rule="evenodd"/><path fill="#000000" fill-opacity="0.0" d="m302.5638 292.83536l-99.08661 99.08661" fill-rule="evenodd"/><path stroke="#011e2c" stroke-width="24.0" stroke-linejoin="round" stroke-linecap="butt" d="m302.5638 292.83536l-99.08661 99.08661" fill-rule="evenodd"/><path fill="#000000" fill-opacity="0.0" d="m347.29135 134.18898l0 0c28.062805 28.45543 43.672394 66.89331 43.394775 106.85776c-0.2776184 39.964462 -16.419678 78.18178 -44.87509 106.24461l-105.811035 -107.29135z" fill-rule="evenodd"/><path fill="#000000" fill-opacity="0.0" d="m347.29135 134.18898l0 0c28.062805 28.45543 43.672394 66.89331 43.394775 106.85776c-0.2776184 39.964462 -16.419678 78.18178 -44.87509 106.24461" fill-rule="evenodd"/><path stroke="#011e2c" stroke-width="24.0" stroke-linejoin="round" stroke-linecap="butt" d="m347.29135 134.18898l0 0c28.062805 28.45543 43.672394 66.89331 43.394775 106.85776c-0.2776184 39.964462 -16.419678 78.18178 -44.87509 106.24461" fill-rule="evenodd"/></g></svg>